<mxfile host="Electron" agent="Mozilla/5.0 (Macintosh; Intel Mac OS X 10_15_7) AppleWebKit/537.36 (KHTML, like Gecko) draw.io/27.0.9 Chrome/134.0.6998.205 Electron/35.4.0 Safari/537.36" version="27.0.9">
  <diagram name="Страница — 1" id="m1Ex1lVMpJyPB3SP7J9f">
    <mxGraphModel dx="946" dy="623" grid="1" gridSize="10" guides="1" tooltips="1" connect="1" arrows="1" fold="1" page="1" pageScale="1" pageWidth="827" pageHeight="1169" math="0" shadow="0">
      <root>
        <mxCell id="0" />
        <mxCell id="1" parent="0" />
        <mxCell id="dqwWb5wIj0HHgPx7E_8p-116" value="" style="shape=table;startSize=0;container=1;collapsible=0;childLayout=tableLayout;" vertex="1" parent="1">
          <mxGeometry x="1" width="800" height="480" as="geometry" />
        </mxCell>
        <mxCell id="dqwWb5wIj0HHgPx7E_8p-117" value="" style="shape=tableRow;horizontal=0;startSize=0;swimlaneHead=0;swimlaneBody=0;strokeColor=inherit;top=0;left=0;bottom=0;right=0;collapsible=0;dropTarget=0;fillColor=none;points=[[0,0.5],[1,0.5]];portConstraint=eastwest;" vertex="1" parent="dqwWb5wIj0HHgPx7E_8p-116">
          <mxGeometry width="800" height="80" as="geometry" />
        </mxCell>
        <mxCell id="dqwWb5wIj0HHgPx7E_8p-118" value="" style="shape=partialRectangle;html=1;whiteSpace=wrap;connectable=0;strokeColor=inherit;overflow=hidden;fillColor=none;top=0;left=0;bottom=0;right=0;pointerEvents=1;" vertex="1" parent="dqwWb5wIj0HHgPx7E_8p-117">
          <mxGeometry width="114" height="80" as="geometry">
            <mxRectangle width="114" height="80" as="alternateBounds" />
          </mxGeometry>
        </mxCell>
        <mxCell id="dqwWb5wIj0HHgPx7E_8p-119" value="Обслуживание депозитных процессов" style="shape=partialRectangle;html=1;whiteSpace=wrap;connectable=0;strokeColor=inherit;overflow=hidden;fillColor=#DFDFDF;top=0;left=0;bottom=0;right=0;pointerEvents=1;shadow=0;perimeterSpacing=1;" vertex="1" parent="dqwWb5wIj0HHgPx7E_8p-117">
          <mxGeometry x="114" width="115" height="80" as="geometry">
            <mxRectangle width="115" height="80" as="alternateBounds" />
          </mxGeometry>
        </mxCell>
        <mxCell id="dqwWb5wIj0HHgPx7E_8p-120" value="Обслуживание кредитных процессов" style="shape=partialRectangle;html=1;whiteSpace=wrap;connectable=0;strokeColor=inherit;overflow=hidden;fillColor=#DFDFDF;top=0;left=0;bottom=0;right=0;pointerEvents=1;" vertex="1" parent="dqwWb5wIj0HHgPx7E_8p-117">
          <mxGeometry x="229" width="114" height="80" as="geometry">
            <mxRectangle width="114" height="80" as="alternateBounds" />
          </mxGeometry>
        </mxCell>
        <mxCell id="dqwWb5wIj0HHgPx7E_8p-121" value="Продажи в сети отделений" style="shape=partialRectangle;html=1;whiteSpace=wrap;connectable=0;strokeColor=inherit;overflow=hidden;fillColor=#DFDFDF;top=0;left=0;bottom=0;right=0;pointerEvents=1;" vertex="1" parent="dqwWb5wIj0HHgPx7E_8p-117">
          <mxGeometry x="343" width="114" height="80" as="geometry">
            <mxRectangle width="114" height="80" as="alternateBounds" />
          </mxGeometry>
        </mxCell>
        <mxCell id="dqwWb5wIj0HHgPx7E_8p-122" value="Управление договорами" style="shape=partialRectangle;html=1;whiteSpace=wrap;connectable=0;strokeColor=inherit;overflow=hidden;fillColor=#DFDFDF;top=0;left=0;bottom=0;right=0;pointerEvents=1;" vertex="1" parent="dqwWb5wIj0HHgPx7E_8p-117">
          <mxGeometry x="457" width="114" height="80" as="geometry">
            <mxRectangle width="114" height="80" as="alternateBounds" />
          </mxGeometry>
        </mxCell>
        <mxCell id="dqwWb5wIj0HHgPx7E_8p-123" value="Продажи через кол-центр" style="shape=partialRectangle;html=1;whiteSpace=wrap;connectable=0;strokeColor=inherit;overflow=hidden;fillColor=#DFDFDF;top=0;left=0;bottom=0;right=0;pointerEvents=1;" vertex="1" parent="dqwWb5wIj0HHgPx7E_8p-117">
          <mxGeometry x="571" width="115" height="80" as="geometry">
            <mxRectangle width="115" height="80" as="alternateBounds" />
          </mxGeometry>
        </mxCell>
        <mxCell id="dqwWb5wIj0HHgPx7E_8p-124" value="Digital-оповещения клиентов" style="shape=partialRectangle;html=1;whiteSpace=wrap;connectable=0;strokeColor=inherit;overflow=hidden;fillColor=#DFDFDF;top=0;left=0;bottom=0;right=0;pointerEvents=1;" vertex="1" parent="dqwWb5wIj0HHgPx7E_8p-117">
          <mxGeometry x="686" width="114" height="80" as="geometry">
            <mxRectangle width="114" height="80" as="alternateBounds" />
          </mxGeometry>
        </mxCell>
        <mxCell id="dqwWb5wIj0HHgPx7E_8p-125" value="" style="shape=tableRow;horizontal=0;startSize=0;swimlaneHead=0;swimlaneBody=0;strokeColor=inherit;top=0;left=0;bottom=0;right=0;collapsible=0;dropTarget=0;fillColor=none;points=[[0,0.5],[1,0.5]];portConstraint=eastwest;" vertex="1" parent="dqwWb5wIj0HHgPx7E_8p-116">
          <mxGeometry y="80" width="800" height="80" as="geometry" />
        </mxCell>
        <mxCell id="dqwWb5wIj0HHgPx7E_8p-126" value="Управление обслуживанием в сети отделений" style="shape=partialRectangle;html=1;whiteSpace=wrap;connectable=0;strokeColor=inherit;overflow=hidden;fillColor=#DFDFDF;top=0;left=0;bottom=0;right=0;pointerEvents=1;" vertex="1" parent="dqwWb5wIj0HHgPx7E_8p-125">
          <mxGeometry width="114" height="80" as="geometry">
            <mxRectangle width="114" height="80" as="alternateBounds" />
          </mxGeometry>
        </mxCell>
        <mxCell id="dqwWb5wIj0HHgPx7E_8p-127" value="" style="shape=partialRectangle;html=1;whiteSpace=wrap;connectable=0;strokeColor=inherit;overflow=hidden;fillColor=none;top=0;left=0;bottom=0;right=0;pointerEvents=1;" vertex="1" parent="dqwWb5wIj0HHgPx7E_8p-125">
          <mxGeometry x="114" width="115" height="80" as="geometry">
            <mxRectangle width="115" height="80" as="alternateBounds" />
          </mxGeometry>
        </mxCell>
        <mxCell id="dqwWb5wIj0HHgPx7E_8p-128" value="" style="shape=partialRectangle;html=1;whiteSpace=wrap;connectable=0;strokeColor=inherit;overflow=hidden;fillColor=none;top=0;left=0;bottom=0;right=0;pointerEvents=1;" vertex="1" parent="dqwWb5wIj0HHgPx7E_8p-125">
          <mxGeometry x="229" width="114" height="80" as="geometry">
            <mxRectangle width="114" height="80" as="alternateBounds" />
          </mxGeometry>
        </mxCell>
        <mxCell id="dqwWb5wIj0HHgPx7E_8p-129" value="" style="shape=partialRectangle;html=1;whiteSpace=wrap;connectable=0;strokeColor=inherit;overflow=hidden;fillColor=none;top=0;left=0;bottom=0;right=0;pointerEvents=1;" vertex="1" parent="dqwWb5wIj0HHgPx7E_8p-125">
          <mxGeometry x="343" width="114" height="80" as="geometry">
            <mxRectangle width="114" height="80" as="alternateBounds" />
          </mxGeometry>
        </mxCell>
        <mxCell id="dqwWb5wIj0HHgPx7E_8p-130" value="" style="shape=partialRectangle;html=1;whiteSpace=wrap;connectable=0;strokeColor=inherit;overflow=hidden;fillColor=none;top=0;left=0;bottom=0;right=0;pointerEvents=1;" vertex="1" parent="dqwWb5wIj0HHgPx7E_8p-125">
          <mxGeometry x="457" width="114" height="80" as="geometry">
            <mxRectangle width="114" height="80" as="alternateBounds" />
          </mxGeometry>
        </mxCell>
        <mxCell id="dqwWb5wIj0HHgPx7E_8p-131" value="" style="shape=partialRectangle;html=1;whiteSpace=wrap;connectable=0;strokeColor=inherit;overflow=hidden;fillColor=none;top=0;left=0;bottom=0;right=0;pointerEvents=1;" vertex="1" parent="dqwWb5wIj0HHgPx7E_8p-125">
          <mxGeometry x="571" width="115" height="80" as="geometry">
            <mxRectangle width="115" height="80" as="alternateBounds" />
          </mxGeometry>
        </mxCell>
        <mxCell id="dqwWb5wIj0HHgPx7E_8p-132" value="" style="shape=partialRectangle;html=1;whiteSpace=wrap;connectable=0;strokeColor=inherit;overflow=hidden;fillColor=none;top=0;left=0;bottom=0;right=0;pointerEvents=1;" vertex="1" parent="dqwWb5wIj0HHgPx7E_8p-125">
          <mxGeometry x="686" width="114" height="80" as="geometry">
            <mxRectangle width="114" height="80" as="alternateBounds" />
          </mxGeometry>
        </mxCell>
        <mxCell id="dqwWb5wIj0HHgPx7E_8p-133" value="" style="shape=tableRow;horizontal=0;startSize=0;swimlaneHead=0;swimlaneBody=0;strokeColor=inherit;top=0;left=0;bottom=0;right=0;collapsible=0;dropTarget=0;fillColor=none;points=[[0,0.5],[1,0.5]];portConstraint=eastwest;" vertex="1" parent="dqwWb5wIj0HHgPx7E_8p-116">
          <mxGeometry y="160" width="800" height="80" as="geometry" />
        </mxCell>
        <mxCell id="dqwWb5wIj0HHgPx7E_8p-134" value="Управление обслуживанием кредитных продуктов" style="shape=partialRectangle;html=1;whiteSpace=wrap;connectable=0;strokeColor=inherit;overflow=hidden;fillColor=#DFDFDF;top=0;left=0;bottom=0;right=0;pointerEvents=1;" vertex="1" parent="dqwWb5wIj0HHgPx7E_8p-133">
          <mxGeometry width="114" height="80" as="geometry">
            <mxRectangle width="114" height="80" as="alternateBounds" />
          </mxGeometry>
        </mxCell>
        <mxCell id="dqwWb5wIj0HHgPx7E_8p-135" value="" style="shape=partialRectangle;html=1;whiteSpace=wrap;connectable=0;strokeColor=inherit;overflow=hidden;fillColor=none;top=0;left=0;bottom=0;right=0;pointerEvents=1;" vertex="1" parent="dqwWb5wIj0HHgPx7E_8p-133">
          <mxGeometry x="114" width="115" height="80" as="geometry">
            <mxRectangle width="115" height="80" as="alternateBounds" />
          </mxGeometry>
        </mxCell>
        <mxCell id="dqwWb5wIj0HHgPx7E_8p-136" value="" style="shape=partialRectangle;html=1;whiteSpace=wrap;connectable=0;strokeColor=inherit;overflow=hidden;fillColor=none;top=0;left=0;bottom=0;right=0;pointerEvents=1;" vertex="1" parent="dqwWb5wIj0HHgPx7E_8p-133">
          <mxGeometry x="229" width="114" height="80" as="geometry">
            <mxRectangle width="114" height="80" as="alternateBounds" />
          </mxGeometry>
        </mxCell>
        <mxCell id="dqwWb5wIj0HHgPx7E_8p-137" value="" style="shape=partialRectangle;html=1;whiteSpace=wrap;connectable=0;strokeColor=inherit;overflow=hidden;fillColor=none;top=0;left=0;bottom=0;right=0;pointerEvents=1;" vertex="1" parent="dqwWb5wIj0HHgPx7E_8p-133">
          <mxGeometry x="343" width="114" height="80" as="geometry">
            <mxRectangle width="114" height="80" as="alternateBounds" />
          </mxGeometry>
        </mxCell>
        <mxCell id="dqwWb5wIj0HHgPx7E_8p-138" value="" style="shape=partialRectangle;html=1;whiteSpace=wrap;connectable=0;strokeColor=inherit;overflow=hidden;fillColor=none;top=0;left=0;bottom=0;right=0;pointerEvents=1;" vertex="1" parent="dqwWb5wIj0HHgPx7E_8p-133">
          <mxGeometry x="457" width="114" height="80" as="geometry">
            <mxRectangle width="114" height="80" as="alternateBounds" />
          </mxGeometry>
        </mxCell>
        <mxCell id="dqwWb5wIj0HHgPx7E_8p-139" value="" style="shape=partialRectangle;html=1;whiteSpace=wrap;connectable=0;strokeColor=inherit;overflow=hidden;fillColor=none;top=0;left=0;bottom=0;right=0;pointerEvents=1;" vertex="1" parent="dqwWb5wIj0HHgPx7E_8p-133">
          <mxGeometry x="571" width="115" height="80" as="geometry">
            <mxRectangle width="115" height="80" as="alternateBounds" />
          </mxGeometry>
        </mxCell>
        <mxCell id="dqwWb5wIj0HHgPx7E_8p-140" value="" style="shape=partialRectangle;html=1;whiteSpace=wrap;connectable=0;strokeColor=inherit;overflow=hidden;fillColor=none;top=0;left=0;bottom=0;right=0;pointerEvents=1;" vertex="1" parent="dqwWb5wIj0HHgPx7E_8p-133">
          <mxGeometry x="686" width="114" height="80" as="geometry">
            <mxRectangle width="114" height="80" as="alternateBounds" />
          </mxGeometry>
        </mxCell>
        <mxCell id="dqwWb5wIj0HHgPx7E_8p-141" value="" style="shape=tableRow;horizontal=0;startSize=0;swimlaneHead=0;swimlaneBody=0;strokeColor=inherit;top=0;left=0;bottom=0;right=0;collapsible=0;dropTarget=0;fillColor=none;points=[[0,0.5],[1,0.5]];portConstraint=eastwest;" vertex="1" parent="dqwWb5wIj0HHgPx7E_8p-116">
          <mxGeometry y="240" width="800" height="80" as="geometry" />
        </mxCell>
        <mxCell id="dqwWb5wIj0HHgPx7E_8p-142" value="Управление обслуживанием депозитных продуктов" style="shape=partialRectangle;html=1;whiteSpace=wrap;connectable=0;strokeColor=inherit;overflow=hidden;fillColor=#DFDFDF;top=0;left=0;bottom=0;right=0;pointerEvents=1;" vertex="1" parent="dqwWb5wIj0HHgPx7E_8p-141">
          <mxGeometry width="114" height="80" as="geometry">
            <mxRectangle width="114" height="80" as="alternateBounds" />
          </mxGeometry>
        </mxCell>
        <mxCell id="dqwWb5wIj0HHgPx7E_8p-143" value="" style="shape=partialRectangle;html=1;whiteSpace=wrap;connectable=0;strokeColor=inherit;overflow=hidden;fillColor=none;top=0;left=0;bottom=0;right=0;pointerEvents=1;" vertex="1" parent="dqwWb5wIj0HHgPx7E_8p-141">
          <mxGeometry x="114" width="115" height="80" as="geometry">
            <mxRectangle width="115" height="80" as="alternateBounds" />
          </mxGeometry>
        </mxCell>
        <mxCell id="dqwWb5wIj0HHgPx7E_8p-144" value="" style="shape=partialRectangle;html=1;whiteSpace=wrap;connectable=0;strokeColor=inherit;overflow=hidden;fillColor=none;top=0;left=0;bottom=0;right=0;pointerEvents=1;" vertex="1" parent="dqwWb5wIj0HHgPx7E_8p-141">
          <mxGeometry x="229" width="114" height="80" as="geometry">
            <mxRectangle width="114" height="80" as="alternateBounds" />
          </mxGeometry>
        </mxCell>
        <mxCell id="dqwWb5wIj0HHgPx7E_8p-145" value="&lt;div&gt;&lt;br&gt;&lt;/div&gt;" style="shape=partialRectangle;html=1;whiteSpace=wrap;connectable=0;strokeColor=inherit;overflow=hidden;fillColor=none;top=0;left=0;bottom=0;right=0;pointerEvents=1;" vertex="1" parent="dqwWb5wIj0HHgPx7E_8p-141">
          <mxGeometry x="343" width="114" height="80" as="geometry">
            <mxRectangle width="114" height="80" as="alternateBounds" />
          </mxGeometry>
        </mxCell>
        <mxCell id="dqwWb5wIj0HHgPx7E_8p-146" value="" style="shape=partialRectangle;html=1;whiteSpace=wrap;connectable=0;strokeColor=inherit;overflow=hidden;fillColor=none;top=0;left=0;bottom=0;right=0;pointerEvents=1;" vertex="1" parent="dqwWb5wIj0HHgPx7E_8p-141">
          <mxGeometry x="457" width="114" height="80" as="geometry">
            <mxRectangle width="114" height="80" as="alternateBounds" />
          </mxGeometry>
        </mxCell>
        <mxCell id="dqwWb5wIj0HHgPx7E_8p-147" value="" style="shape=partialRectangle;html=1;whiteSpace=wrap;connectable=0;strokeColor=inherit;overflow=hidden;fillColor=none;top=0;left=0;bottom=0;right=0;pointerEvents=1;" vertex="1" parent="dqwWb5wIj0HHgPx7E_8p-141">
          <mxGeometry x="571" width="115" height="80" as="geometry">
            <mxRectangle width="115" height="80" as="alternateBounds" />
          </mxGeometry>
        </mxCell>
        <mxCell id="dqwWb5wIj0HHgPx7E_8p-148" value="" style="shape=partialRectangle;html=1;whiteSpace=wrap;connectable=0;strokeColor=inherit;overflow=hidden;fillColor=none;top=0;left=0;bottom=0;right=0;pointerEvents=1;" vertex="1" parent="dqwWb5wIj0HHgPx7E_8p-141">
          <mxGeometry x="686" width="114" height="80" as="geometry">
            <mxRectangle width="114" height="80" as="alternateBounds" />
          </mxGeometry>
        </mxCell>
        <mxCell id="dqwWb5wIj0HHgPx7E_8p-149" value="" style="shape=tableRow;horizontal=0;startSize=0;swimlaneHead=0;swimlaneBody=0;strokeColor=inherit;top=0;left=0;bottom=0;right=0;collapsible=0;dropTarget=0;fillColor=none;points=[[0,0.5],[1,0.5]];portConstraint=eastwest;" vertex="1" parent="dqwWb5wIj0HHgPx7E_8p-116">
          <mxGeometry y="320" width="800" height="80" as="geometry" />
        </mxCell>
        <mxCell id="dqwWb5wIj0HHgPx7E_8p-150" value="Кол-центр" style="shape=partialRectangle;html=1;whiteSpace=wrap;connectable=0;strokeColor=inherit;overflow=hidden;fillColor=#DFDFDF;top=0;left=0;bottom=0;right=0;pointerEvents=1;" vertex="1" parent="dqwWb5wIj0HHgPx7E_8p-149">
          <mxGeometry width="114" height="80" as="geometry">
            <mxRectangle width="114" height="80" as="alternateBounds" />
          </mxGeometry>
        </mxCell>
        <mxCell id="dqwWb5wIj0HHgPx7E_8p-151" value="" style="shape=partialRectangle;html=1;whiteSpace=wrap;connectable=0;strokeColor=inherit;overflow=hidden;fillColor=none;top=0;left=0;bottom=0;right=0;pointerEvents=1;" vertex="1" parent="dqwWb5wIj0HHgPx7E_8p-149">
          <mxGeometry x="114" width="115" height="80" as="geometry">
            <mxRectangle width="115" height="80" as="alternateBounds" />
          </mxGeometry>
        </mxCell>
        <mxCell id="dqwWb5wIj0HHgPx7E_8p-152" value="" style="shape=partialRectangle;html=1;whiteSpace=wrap;connectable=0;strokeColor=inherit;overflow=hidden;fillColor=none;top=0;left=0;bottom=0;right=0;pointerEvents=1;" vertex="1" parent="dqwWb5wIj0HHgPx7E_8p-149">
          <mxGeometry x="229" width="114" height="80" as="geometry">
            <mxRectangle width="114" height="80" as="alternateBounds" />
          </mxGeometry>
        </mxCell>
        <mxCell id="dqwWb5wIj0HHgPx7E_8p-153" value="" style="shape=partialRectangle;html=1;whiteSpace=wrap;connectable=0;strokeColor=inherit;overflow=hidden;fillColor=none;top=0;left=0;bottom=0;right=0;pointerEvents=1;" vertex="1" parent="dqwWb5wIj0HHgPx7E_8p-149">
          <mxGeometry x="343" width="114" height="80" as="geometry">
            <mxRectangle width="114" height="80" as="alternateBounds" />
          </mxGeometry>
        </mxCell>
        <mxCell id="dqwWb5wIj0HHgPx7E_8p-154" value="" style="shape=partialRectangle;html=1;whiteSpace=wrap;connectable=0;strokeColor=inherit;overflow=hidden;fillColor=none;top=0;left=0;bottom=0;right=0;pointerEvents=1;" vertex="1" parent="dqwWb5wIj0HHgPx7E_8p-149">
          <mxGeometry x="457" width="114" height="80" as="geometry">
            <mxRectangle width="114" height="80" as="alternateBounds" />
          </mxGeometry>
        </mxCell>
        <mxCell id="dqwWb5wIj0HHgPx7E_8p-155" value="" style="shape=partialRectangle;html=1;whiteSpace=wrap;connectable=0;strokeColor=inherit;overflow=hidden;fillColor=none;top=0;left=0;bottom=0;right=0;pointerEvents=1;" vertex="1" parent="dqwWb5wIj0HHgPx7E_8p-149">
          <mxGeometry x="571" width="115" height="80" as="geometry">
            <mxRectangle width="115" height="80" as="alternateBounds" />
          </mxGeometry>
        </mxCell>
        <mxCell id="dqwWb5wIj0HHgPx7E_8p-156" value="" style="shape=partialRectangle;html=1;whiteSpace=wrap;connectable=0;strokeColor=inherit;overflow=hidden;fillColor=none;top=0;left=0;bottom=0;right=0;pointerEvents=1;" vertex="1" parent="dqwWb5wIj0HHgPx7E_8p-149">
          <mxGeometry x="686" width="114" height="80" as="geometry">
            <mxRectangle width="114" height="80" as="alternateBounds" />
          </mxGeometry>
        </mxCell>
        <mxCell id="dqwWb5wIj0HHgPx7E_8p-157" value="" style="shape=tableRow;horizontal=0;startSize=0;swimlaneHead=0;swimlaneBody=0;strokeColor=inherit;top=0;left=0;bottom=0;right=0;collapsible=0;dropTarget=0;fillColor=none;points=[[0,0.5],[1,0.5]];portConstraint=eastwest;" vertex="1" parent="dqwWb5wIj0HHgPx7E_8p-116">
          <mxGeometry y="400" width="800" height="80" as="geometry" />
        </mxCell>
        <mxCell id="dqwWb5wIj0HHgPx7E_8p-158" value="&lt;meta charset=&quot;utf-8&quot;&gt;&lt;span style=&quot;color: rgb(0, 0, 0); font-family: Helvetica; font-size: 12px; font-style: normal; font-variant-ligatures: normal; font-variant-caps: normal; font-weight: 400; letter-spacing: normal; orphans: 2; text-align: center; text-indent: 0px; text-transform: none; widows: 2; word-spacing: 0px; -webkit-text-stroke-width: 0px; white-space: normal; background-color: rgb(236, 236, 236); text-decoration-thickness: initial; text-decoration-style: initial; text-decoration-color: initial; display: inline !important; float: none;&quot;&gt;Команда цифровой трансформации розничного бизнеса&lt;/span&gt;" style="shape=partialRectangle;html=1;whiteSpace=wrap;connectable=0;strokeColor=inherit;overflow=hidden;fillColor=#DFDFDF;top=0;left=0;bottom=0;right=0;pointerEvents=1;" vertex="1" parent="dqwWb5wIj0HHgPx7E_8p-157">
          <mxGeometry width="114" height="80" as="geometry">
            <mxRectangle width="114" height="80" as="alternateBounds" />
          </mxGeometry>
        </mxCell>
        <mxCell id="dqwWb5wIj0HHgPx7E_8p-159" value="" style="shape=partialRectangle;html=1;whiteSpace=wrap;connectable=0;strokeColor=inherit;overflow=hidden;fillColor=none;top=0;left=0;bottom=0;right=0;pointerEvents=1;" vertex="1" parent="dqwWb5wIj0HHgPx7E_8p-157">
          <mxGeometry x="114" width="115" height="80" as="geometry">
            <mxRectangle width="115" height="80" as="alternateBounds" />
          </mxGeometry>
        </mxCell>
        <mxCell id="dqwWb5wIj0HHgPx7E_8p-160" value="" style="shape=partialRectangle;html=1;whiteSpace=wrap;connectable=0;strokeColor=inherit;overflow=hidden;fillColor=none;top=0;left=0;bottom=0;right=0;pointerEvents=1;" vertex="1" parent="dqwWb5wIj0HHgPx7E_8p-157">
          <mxGeometry x="229" width="114" height="80" as="geometry">
            <mxRectangle width="114" height="80" as="alternateBounds" />
          </mxGeometry>
        </mxCell>
        <mxCell id="dqwWb5wIj0HHgPx7E_8p-161" value="" style="shape=partialRectangle;html=1;whiteSpace=wrap;connectable=0;strokeColor=inherit;overflow=hidden;fillColor=none;top=0;left=0;bottom=0;right=0;pointerEvents=1;" vertex="1" parent="dqwWb5wIj0HHgPx7E_8p-157">
          <mxGeometry x="343" width="114" height="80" as="geometry">
            <mxRectangle width="114" height="80" as="alternateBounds" />
          </mxGeometry>
        </mxCell>
        <mxCell id="dqwWb5wIj0HHgPx7E_8p-162" value="" style="shape=partialRectangle;html=1;whiteSpace=wrap;connectable=0;strokeColor=inherit;overflow=hidden;fillColor=none;top=0;left=0;bottom=0;right=0;pointerEvents=1;" vertex="1" parent="dqwWb5wIj0HHgPx7E_8p-157">
          <mxGeometry x="457" width="114" height="80" as="geometry">
            <mxRectangle width="114" height="80" as="alternateBounds" />
          </mxGeometry>
        </mxCell>
        <mxCell id="dqwWb5wIj0HHgPx7E_8p-163" value="" style="shape=partialRectangle;html=1;whiteSpace=wrap;connectable=0;strokeColor=inherit;overflow=hidden;fillColor=none;top=0;left=0;bottom=0;right=0;pointerEvents=1;" vertex="1" parent="dqwWb5wIj0HHgPx7E_8p-157">
          <mxGeometry x="571" width="115" height="80" as="geometry">
            <mxRectangle width="115" height="80" as="alternateBounds" />
          </mxGeometry>
        </mxCell>
        <mxCell id="dqwWb5wIj0HHgPx7E_8p-164" value="" style="shape=partialRectangle;html=1;whiteSpace=wrap;connectable=0;strokeColor=inherit;overflow=hidden;fillColor=none;top=0;left=0;bottom=0;right=0;pointerEvents=1;" vertex="1" parent="dqwWb5wIj0HHgPx7E_8p-157">
          <mxGeometry x="686" width="114" height="80" as="geometry">
            <mxRectangle width="114" height="80" as="alternateBounds" />
          </mxGeometry>
        </mxCell>
        <mxCell id="dqwWb5wIj0HHgPx7E_8p-175" value="АБС" style="rounded=1;whiteSpace=wrap;html=1;fillColor=#A9C4EB;" vertex="1" parent="1">
          <mxGeometry x="120" y="170" width="220" height="170" as="geometry" />
        </mxCell>
        <mxCell id="dqwWb5wIj0HHgPx7E_8p-176" value="АБС" style="rounded=1;whiteSpace=wrap;html=1;fillColor=#A9C4EB;" vertex="1" parent="1">
          <mxGeometry x="160" y="90" width="410" height="60" as="geometry" />
        </mxCell>
        <mxCell id="dqwWb5wIj0HHgPx7E_8p-177" value="СМС-шлюз" style="rounded=1;whiteSpace=wrap;html=1;fillColor=#A9C4EB;" vertex="1" parent="1">
          <mxGeometry x="690" y="190" width="110" height="100" as="geometry" />
        </mxCell>
        <mxCell id="dqwWb5wIj0HHgPx7E_8p-178" value="CRM" style="rounded=1;whiteSpace=wrap;html=1;fillColor=#A9C4EB;" vertex="1" parent="1">
          <mxGeometry x="580" y="330" width="100" height="60" as="geometry" />
        </mxCell>
      </root>
    </mxGraphModel>
  </diagram>
</mxfile>
